<?xml version="1.0" standalone="no"?>
<!DOCTYPE svg PUBLIC "-//W3C//DTD SVG 20010904//EN"
 "http://www.w3.org/TR/2001/REC-SVG-20010904/DTD/svg10.dtd">
<svg version="1.0" xmlns="http://www.w3.org/2000/svg"
 width="100.000000pt" height="100.000000pt" viewBox="0 0 100.000000 100.000000"
 preserveAspectRatio="xMidYMid meet">
<metadata>
Created by potrace 1.10, written by Peter Selinger 2001-2011
</metadata>
<g transform="translate(0.000000,100.000000) scale(0.100000,-0.100000)"
fill="#6aa84f" stroke="none">
<path d="M441 972 c3 -19 -2 -33 -10 -27 -14 8 -18 -3 -40 -94 -13 -59 -15
-79 -6 -71 8 7 15 7 19 1 3 -5 0 -12 -6 -14 -10 -4 -10 -6 0 -6 6 -1 12 -8 12
-16 0 -17 -41 -107 -53 -116 -5 -3 -9 -10 -9 -15 -1 -19 -10 -34 -18 -29 -9 6
-63 -55 -56 -62 9 -9 26 8 20 19 -4 7 -2 8 5 4 7 -4 20 2 31 16 11 13 19 19
20 13 0 -5 -21 -29 -46 -52 l-47 -42 27 -7 c29 -7 71 20 59 39 -3 6 -1 7 5 3
7 -4 12 -3 12 2 0 5 12 12 28 14 15 3 33 7 41 9 10 3 16 -5 17 -24 2 -19 -1
-25 -9 -21 -7 4 -3 -2 7 -14 11 -12 16 -22 11 -22 -4 0 -2 -7 6 -16 16 -19 0
-32 -34 -28 -12 1 -27 3 -34 3 -23 2 -36 41 -22 67 7 13 9 27 6 31 -4 3 -7 -1
-7 -11 0 -9 -3 -15 -7 -13 -10 5 -43 -30 -36 -37 8 -8 -28 -86 -39 -86 -5 0
-7 -4 -3 -9 3 -5 -5 -17 -17 -26 -13 -8 -23 -20 -23 -25 0 -5 -9 -15 -19 -23
-15 -11 -16 -16 -6 -22 9 -6 11 -4 5 5 -5 8 -4 11 2 7 11 -7 28 20 24 37 -1 5
6 3 15 -5 16 -12 17 -12 11 3 -7 20 8 34 19 17 4 -7 3 -9 -3 -6 -6 4 -10 -1
-9 -10 0 -10 -5 -18 -11 -18 -7 0 -20 -10 -28 -23 -9 -12 -20 -20 -24 -18 -4
3 -18 -8 -30 -24 -22 -30 -17 -40 9 -17 8 6 6 1 -5 -13 -11 -14 -24 -28 -29
-32 -8 -5 53 -28 76 -28 4 0 15 14 23 30 9 17 19 29 23 26 5 -3 14 -1 22 5 13
7 13 9 1 9 -11 0 -11 4 2 18 10 10 14 22 11 25 -4 4 4 15 17 26 22 18 26 18
42 4 10 -10 17 -11 17 -5 0 6 -8 16 -18 21 -14 8 -26 3 -55 -23 -20 -18 -34
-36 -30 -40 4 -4 -1 -4 -11 0 -14 5 -25 0 -42 -21 -13 -16 -26 -27 -29 -23 -3
3 20 38 52 78 37 47 57 80 55 94 -2 16 -1 17 6 7 7 -10 13 -5 21 22 11 33 13
35 37 23 13 -7 41 -12 62 -11 33 3 35 2 14 -8 -14 -6 -21 -16 -17 -25 3 -8 -2
-20 -12 -27 -15 -11 -15 -13 5 -19 12 -4 22 -12 22 -18 0 -6 -3 -8 -7 -5 -3 4
-13 1 -21 -6 -13 -10 -15 -9 -9 5 3 10 2 17 -3 15 -5 -1 -16 7 -24 18 -16 20
-16 20 -9 0 3 -11 10 -23 15 -26 5 -3 11 -16 13 -29 7 -35 37 -51 51 -28 5 7
2 9 -8 5 -22 -8 -40 12 -25 28 13 14 40 8 31 -6 -3 -5 0 -9 5 -9 6 0 11 -6 11
-14 0 -17 -35 -31 -51 -20 -7 4 -10 2 -7 -6 2 -7 11 -14 20 -16 8 -1 31 -5 49
-9 31 -6 32 -6 15 8 -19 14 -19 14 0 26 19 11 19 11 -1 27 -18 14 -18 16 -4
27 18 13 14 40 -4 31 -7 -3 -5 0 4 8 8 7 15 23 15 35 0 12 -2 20 -5 18 -2 -3
-12 19 -22 48 -21 64 -23 214 -1 210 13 -3 15 2 16 65 1 23 -2 42 -6 42 -4 0
-8 5 -8 11 0 5 5 7 11 3 8 -4 8 -1 1 12 -5 11 -8 49 -7 87 2 60 1 67 -17 67
-10 0 -16 5 -13 10 3 6 0 10 -7 10 -11 0 -10 2 0 9 11 7 11 9 -2 14 -9 4 -15
3 -15 -1z m15 -62 c14 0 15 -4 19 -100 1 -30 5 -66 9 -79 6 -16 5 -21 -3 -17
-6 4 -11 0 -11 -8 0 -9 5 -16 10 -16 6 0 10 -8 9 -17 0 -11 -3 -13 -6 -5 -2 6
-9 12 -14 12 -6 0 -8 -4 -5 -8 2 -4 -4 -27 -14 -50 -16 -36 -17 -44 -4 -56 18
-18 19 -32 1 -17 -8 6 -16 8 -20 5 -9 -10 -77 -22 -77 -14 0 4 10 22 23 41 26
38 41 73 29 65 -5 -3 -9 1 -9 9 0 8 4 12 8 9 4 -2 11 5 14 17 6 17 9 19 17 8
7 -12 9 -11 7 1 -4 39 1 61 14 54 6 -4 9 -4 5 1 -4 4 -3 15 2 25 6 12 5 17 -5
17 -8 0 -11 -5 -8 -11 4 -6 -1 -5 -11 3 -18 15 -18 52 -1 111 7 24 7 24 -8 5
-19 -24 -22 -13 -5 15 7 11 14 16 16 10 2 -5 10 -10 18 -10z m-29 -162 c-3 -8
-6 -5 -6 6 -1 11 2 17 5 13 3 -3 4 -12 1 -19z m-97 -172 c0 -2 -8 -10 -17 -17
-16 -13 -17 -12 -4 4 13 16 21 21 21 13z m12 -158 c-8 -8 -9 -4 -5 13 4 13 8
18 11 10 2 -7 -1 -18 -6 -23z m143 -49 c5 -14 2 -25 -6 -30 -11 -8 -11 -12 4
-23 10 -8 14 -16 10 -19 -5 -3 -18 6 -30 19 -20 22 -20 28 0 25 4 -1 5 10 1
24 -8 31 12 34 21 4z m-170 -18 c3 -5 2 -12 -3 -15 -5 -3 -9 1 -9 9 0 17 3 19
12 6z m-62 -171 c-9 -16 -21 -30 -26 -30 -9 0 -1 15 22 42 23 27 24 22 4 -12z"/>
<path d="M445 839 c2 -10 0 -19 -6 -19 -5 0 -9 -4 -9 -8 0 -5 7 -9 16 -9 10 0
14 7 11 18 -3 10 0 20 6 22 6 2 4 6 -5 10 -13 4 -16 1 -13 -14z"/>
<path d="M481 594 c0 -11 3 -14 6 -6 3 7 2 16 -1 19 -3 4 -6 -2 -5 -13z"/>
<path d="M413 481 c0 -11 5 -18 9 -15 4 3 5 11 1 19 -7 21 -12 19 -10 -4z"/>
<path d="M380 456 c0 -2 7 -9 15 -16 9 -7 15 -8 15 -2 0 5 -7 12 -15 16 -8 3
-15 4 -15 2z"/>
<path d="M364 258 c-3 -4 0 -8 6 -8 6 0 9 -4 6 -9 -3 -5 0 -11 8 -14 7 -3 16
-17 18 -31 3 -14 2 -23 -2 -21 -4 3 -13 -2 -20 -10 -12 -14 -35 -11 -26 4 3 4
-4 12 -14 19 -14 9 -21 8 -30 -3 -8 -10 -8 -15 1 -20 8 -6 7 -10 -2 -16 -11
-7 -11 -9 -1 -9 8 0 10 -5 6 -12 -5 -8 0 -7 11 2 17 14 18 13 12 -2 -8 -21 17
-25 30 -5 9 14 43 19 43 6 0 -5 4 -9 9 -9 9 0 7 47 -3 110 -2 14 -5 27 -5 30
-1 9 -42 7 -47 -2z"/>
<path d="M330 234 c-11 -12 -10 -18 5 -32 17 -16 17 -16 12 6 -5 20 -3 21 10
10 15 -12 15 -11 4 10 -14 26 -15 26 -31 6z"/>
<path d="M368 193 c7 -3 16 -2 19 1 4 3 -2 6 -13 5 -11 0 -14 -3 -6 -6z"/>
<path d="M375 110 c-3 -5 -2 -10 4 -10 5 0 13 5 16 10 3 6 2 10 -4 10 -5 0
-13 -4 -16 -10z"/>
</g>
</svg>
